<?xml version="1.0" encoding="iso-8859-1"?>
<!-- Uploaded to: SVG Repo, www.svgrepo.com, Generator: SVG Repo Mixer Tools -->
<svg height="800px" width="800px" version="1.1" id="Layer_1" xmlns="http://www.w3.org/2000/svg" xmlns:xlink="http://www.w3.org/1999/xlink" 
	 viewBox="0 0 511.743 511.743" xml:space="preserve">
<g transform="translate(0 -1020.36)" shape-rendering="auto" image-rendering="auto" color-rendering="auto" color-interpolation="sRGB">
	<g>
		<path style="fill:#29A3EC;" d="M114.161,1479.786L114.161,1479.786c-12.815,0.006-23.41,5.686-31.312,10.031
			c-7.994,4.396-13.649,8.545-14.063,8.844c-4.535,2.824-7.678,7.715-8.375,12.531c-0.701,4.869,0.544,9.283,2.939,12.875
			c2.401,3.592,6.193,6.604,11.125,7.688c4.929,1.088,10.754-0.416,14.875-3.906c0.544-0.416,4.626-3.145,10.5-6.377
			c2.927-1.607,6.495-3.137,9.469-4.252c2.975-1.104,6.073-1.535,4.844-1.535c-1.064,0,2.231,0.816,7.531,4.596
			c5.285,3.756,14.56,11.219,27.875,11.219c13.315,0,22.591-7.463,27.875-11.219c5.303-3.766,8.616-4.596,7.563-4.596
			c-1.046,0,2.135,0.816,7.438,4.596c5.285,3.756,14.561,11.219,27.875,11.219c13.315,0,22.716-7.465,28-11.219
			c5.249-3.73,8.614-4.596,7.563-4.596c-1.052,0,2.262,0.816,7.563,4.596c5.285,3.756,14.561,11.219,27.875,11.219
			c13.315,0,22.591-7.465,27.875-11.219c5.297-3.766,8.616-4.596,7.563-4.596c-1.052,0,2.262,0.816,7.563,4.596
			c5.285,3.756,14.561,11.219,27.875,11.219c13.315,0,22.591-7.463,27.875-11.219c5.297-3.766,8.585-4.596,7.532-4.596
			c-1.155,0.002,1.971,0.305,4.971,1.408c2.999,1.088,6.579,2.672,9.469,4.252c6.214,3.398,10.843,6.844,10.843,6.844l-0.605-0.48
			c4.124,3.473,10.069,4.988,15,3.906c4.928-1.088,8.597-4.102,11-7.688c2.401-3.592,3.767-8.004,3.06-12.875
			c-0.701-4.869-4.015-9.816-8.625-12.623c-0.484-0.367-6.029-4.299-13.937-8.625c-7.866-4.299-18.349-10.07-31.187-10.063
			c-13.315,0-22.591,7.367-27.875,11.125c-5.303,3.766-8.583,4.596-7.531,4.596c1.052,0-2.262-0.816-7.562-4.596
			c-5.285-3.756-14.561-11.125-27.875-11.125s-22.59,7.367-27.875,11.125c-5.297,3.766-8.612,4.596-7.563,4.596
			c1.052,0-2.443-0.863-7.687-4.596c-5.231-3.721-14.435-11.125-27.75-11.125c-13.315,0-22.591,7.367-27.875,11.125
			c-5.249,3.73-8.74,4.596-7.688,4.596c1.052,0-2.135-0.816-7.438-4.596c-5.285-3.756-14.56-11.125-27.875-11.125
			c-13.315,0-22.715,7.367-28,11.125c-5.297,3.766-8.49,4.596-7.438,4.596s-2.262-0.816-7.563-4.596
			c-5.279-3.756-14.523-11.129-27.844-11.125L114.161,1479.786z"/>
		<path style="fill:#3CDEF6;" d="M114.161,1383.62L114.161,1383.62c-12.815,0.006-23.41,5.686-31.312,10.031
			c-7.994,4.396-13.649,8.545-14.063,8.844c-4.535,2.824-7.678,7.715-8.375,12.531c-0.701,4.869,0.544,9.283,2.939,12.875
			c2.401,3.592,6.193,6.604,11.125,7.688c4.929,1.088,10.754-0.416,14.875-3.906c0.544-0.416,4.626-3.145,10.5-6.377
			c2.927-1.607,6.495-3.137,9.469-4.252c2.975-1.119,6.073-1.535,4.844-1.535c-1.064,0,2.231,0.816,7.531,4.596
			c5.285,3.756,14.56,11.219,27.875,11.219c13.315,0,22.591-7.463,27.875-11.219c5.303-3.766,8.616-4.596,7.563-4.596
			c-1.046,0,2.135,0.816,7.438,4.596c5.285,3.756,14.561,11.219,27.875,11.219c13.315,0,22.716-7.463,28-11.219
			c5.249-3.73,8.614-4.596,7.563-4.596c-1.052,0,2.262,0.816,7.563,4.596c5.285,3.756,14.561,11.219,27.875,11.219
			c13.315,0,22.591-7.463,27.875-11.219c5.297-3.766,8.616-4.596,7.563-4.596c-1.052,0,2.262,0.816,7.563,4.596
			c5.285,3.756,14.561,11.219,27.875,11.219c13.315,0,22.591-7.463,27.875-11.219c5.297-3.766,8.585-4.596,7.532-4.596
			c-1.155,0.002,1.971,0.305,4.971,1.408c2.999,1.088,6.579,2.672,9.469,4.252c6.214,3.398,10.843,6.844,10.843,6.844l-0.605-0.48
			c4.124,3.473,10.069,4.99,15,3.906c4.928-1.088,8.597-4.102,11-7.688c2.401-3.592,3.767-8.004,3.06-12.875
			c-0.701-4.869-4.015-9.816-8.625-12.623c-0.484-0.367-6.029-4.299-13.937-8.625c-7.866-4.299-18.349-10.07-31.187-10.063
			c-13.315,0-22.591,7.367-27.875,11.125c-5.303,3.768-8.583,4.596-7.531,4.596c1.052,0-2.262-0.816-7.562-4.596
			c-5.285-3.756-14.561-11.125-27.875-11.125s-22.59,7.367-27.875,11.125c-5.297,3.768-8.612,4.596-7.563,4.596
			c1.052,0-2.443-0.863-7.687-4.596c-5.231-3.721-14.435-11.125-27.75-11.125c-13.315,0-22.591,7.367-27.875,11.125
			c-5.249,3.73-8.74,4.596-7.688,4.596c1.052,0-2.135-0.816-7.438-4.596c-5.285-3.756-14.56-11.125-27.875-11.125
			c-13.315,0-22.715,7.367-28,11.125c-5.297,3.768-8.49,4.596-7.438,4.596s-2.262-0.816-7.563-4.596
			c-5.279-3.756-14.523-11.129-27.844-11.125L114.161,1383.62z"/>
		<path style="fill:#C1EAED;" d="M114.161,1433.825L114.161,1433.825c-12.815,0.006-23.41,5.686-31.312,10.031
			c-7.994,4.396-13.649,8.545-14.063,8.844c-4.535,2.824-7.678,7.715-8.375,12.531c-0.701,4.869,0.544,9.283,2.939,12.875
			c2.401,3.592,6.193,6.604,11.125,7.688c4.929,1.088,10.754-0.432,14.875-3.906c0.544-0.416,4.626-3.145,10.5-6.375
			c2.927-1.609,6.495-3.139,9.469-4.252c2.975-1.119,6.073-1.535,4.844-1.535c-1.064,0,2.231,0.832,7.531,4.596
			c5.285,3.756,14.56,11.219,27.875,11.219c13.315,0,22.591-7.463,27.875-11.219c5.303-3.768,8.616-4.596,7.563-4.596
			c-1.046,0,2.135,0.816,7.438,4.596c5.285,3.756,14.561,11.219,27.875,11.219c13.315,0,22.716-7.465,28-11.219
			c5.249-3.73,8.614-4.596,7.563-4.596c-1.052,0,2.262,0.816,7.563,4.596c5.285,3.756,14.561,11.219,27.875,11.219
			c13.315,0,22.591-7.465,27.875-11.219c5.303-3.768,8.616-4.596,7.563-4.596c-1.052,0,2.262,0.816,7.563,4.596
			c5.285,3.756,14.561,11.219,27.875,11.219c13.315,0,22.591-7.463,27.875-11.219c5.303-3.768,8.584-4.596,7.531-4.596
			c-1.155,0.002,1.971,0.305,4.971,1.408c2.999,1.088,6.579,2.674,9.469,4.252c6.214,3.398,10.844,6.844,10.844,6.844l-0.605-0.48
			c4.124,3.471,10.069,4.988,15,3.906c4.928-1.088,8.597-4.1,11-7.688c2.401-3.592,3.767-8.004,3.06-12.875
			c-0.701-4.867-4.015-9.814-8.625-12.623c-0.484-0.367-6.029-4.299-13.938-8.625c-7.866-4.299-18.349-10.068-31.187-10.063
			c-13.315,0-22.591,7.367-27.875,11.125c-5.303,3.768-8.583,4.598-7.532,4.598c1.052,0-2.262-0.816-7.562-4.598
			c-5.285-3.756-14.561-11.125-27.875-11.125s-22.59,7.367-27.875,11.125c-5.297,3.768-8.612,4.598-7.562,4.598
			c1.052,0-2.443-0.863-7.688-4.598c-5.231-3.719-14.435-11.125-27.75-11.125c-13.315,0-22.591,7.367-27.875,11.125
			c-5.249,3.73-8.739,4.598-7.687,4.598c1.052,0-2.141-0.816-7.438-4.598c-5.285-3.756-14.56-11.125-27.875-11.125
			s-22.715,7.367-28,11.125c-5.297,3.768-8.49,4.598-7.438,4.598s-2.262-0.816-7.562-4.598
			c-5.285-3.756-14.523-11.129-27.844-11.125L114.161,1433.825z"/>
	</g>
	<path style="fill:#5A3392;" d="M255.923,1020.388c-11.88,0-23.826,5.915-31.716,16.781
		c-28.912,39.835-72.133,113.14-72.133,198.302c0,52.141,16.251,99.289,35.427,137.367c-1.536-0.305-3.139-0.48-4.862-0.48
		c-9.895,0-17.079,5.322-22.828,9.248c-5.751,3.938-10.069,6.469-13.816,6.469c-3.743,0-8.065-2.535-13.815-6.469
		c-5.751-3.936-12.93-9.252-22.828-9.248c-9.925,0.004-19.334,4.68-27.257,8.873c-7.922,4.197-14.002,8.375-14.002,8.375
		c-9.685,5.805,0.121,20.023,9.013,13.094c0,0,5.443-3.713,12.474-7.438c7.035-3.725,16.004-6.998,19.772-7
		c3.743-0.002,8.066,2.535,13.816,6.469c5.751,3.938,12.931,9.25,22.828,9.25c9.895,0,17.079-5.322,22.828-9.25
		c5.751-3.936,8.731-6.549,13.816-6.469c6.817,0.16,18.243,9.25,18.243,9.25l14.377,22.873l40.666-8.154l40.542,8.154l14.252-22.717
		c0,0,11.577-9.295,18.493-9.408c5.086,0,8.064,2.535,13.816,6.469c5.751,3.938,12.902,9.281,22.797,9.281
		c9.895,0,17.109-5.352,22.859-9.281c5.751-3.936,10.069-6.469,13.816-6.469c3.767-0.004,12.733,3.234,19.771,6.939
		c7.038,3.701,12.506,7.438,12.506,7.438c8.793,5.975,17.775-7.182,8.981-13.156c0,0-6.107-4.172-14.033-8.342
		c-7.927-4.166-17.316-8.787-27.225-8.781c-9.895,0-17.079,5.352-22.828,9.279c-5.751,3.938-10.101,6.438-13.846,6.438
		c-3.743,0-8.034-2.504-13.785-6.438c-5.751-3.936-12.933-9.279-22.828-9.279c-1.772,0-3.447,0.176-5.019,0.48
		c19.182-38.082,35.427-85.244,35.427-137.398c0-85.16-43.221-158.464-72.133-198.301c-7.89-10.869-19.68-16.779-31.56-16.779
		L255.923,1020.388z"/>
	<path style="fill:#EE746C;" d="M255.923,1036.326c6.79,0,13.52,3.131,18.618,10.155c27.858,38.383,69.17,109.305,69.17,188.988
		c0,67.254-29.296,126.549-55.262,166.988l-32.527-6.5l-32.651,6.5c-25.965-40.439-55.168-99.734-55.168-166.988
		c0-79.684,41.219-150.605,69.076-188.989C242.278,1039.456,249.133,1036.325,255.923,1036.326L255.923,1036.326z"/>
	<g>
		<path style="fill:#5A3392;" d="M109.162,1420.405c-9.937,0.004-19.413,4.639-27.346,8.857c-7.932,4.217-14.026,8.504-14.026,8.504
			c-3.803,2.236-5.077,7.139-2.845,10.949s7.124,5.086,10.927,2.85c0.348-0.203,0.68-0.434,0.993-0.689
			c0,0,5.455-3.695,12.494-7.439c7.041-3.744,16.029-7.084,19.802-7.086c3.749-0.002,8.034,2.541,13.79,6.496
			c5.757,3.955,12.96,9.33,22.866,9.33c9.905,0,17.111-5.377,22.866-9.33c5.757-3.955,10.041-6.496,13.791-6.496
			c3.749,0,8.034,2.541,13.791,6.496c5.757,3.955,12.96,9.33,22.866,9.33c9.905,0,17.11-5.377,22.866-9.33
			c5.757-3.955,10.158-6.496,13.909-6.496c3.749,0,8.034,2.541,13.791,6.496c5.757,3.955,12.961,9.33,22.866,9.33
			c9.905,0,17.109-5.377,22.866-9.33c5.757-3.955,10.041-6.496,13.79-6.496s8.034,2.541,13.791,6.496
			c5.757,3.955,12.96,9.33,22.866,9.33c9.905,0,17.11-5.377,22.866-9.33c5.757-3.955,10.041-6.496,13.791-6.496
			c3.773-0.002,12.873,3.248,19.92,6.969c7.046,3.725,12.376,7.441,12.376,7.441c3.427,2.781,8.455,2.25,11.23-1.184
			c2.775-3.434,2.246-8.473-1.181-11.252c-0.307-0.25-0.632-0.475-0.972-0.676c0,0-6.091-4.197-14.027-8.385
			c-7.935-4.189-17.425-8.863-27.345-8.857c-9.906,0-17.111,5.377-22.866,9.33c-5.757,3.955-10.041,6.496-13.791,6.496
			c-3.749,0-8.034-2.539-13.791-6.496c-5.757-3.953-12.961-9.33-22.866-9.33s-17.11,5.377-22.866,9.33
			c-5.757,3.955-10.04,6.496-13.79,6.496c-3.749,0-8.152-2.539-13.909-6.496c-5.757-3.953-12.843-9.33-22.749-9.33
			c-9.906,0-17.11,5.377-22.866,9.33c-5.757,3.955-10.159,6.496-13.908,6.496s-8.034-2.539-13.791-6.496
			c-5.757-3.953-12.96-9.33-22.866-9.33c-9.905,0-17.11,5.377-22.866,9.33c-5.757,3.955-10.041,6.496-13.791,6.496
			c-3.749,0-8.034-2.539-13.79-6.496c-5.757-3.953-12.959-9.334-22.866-9.33L109.162,1420.405z"/>
		<path style="fill:#5A3392;" d="M109.162,1468.354c-9.937,0.004-19.413,4.639-27.346,8.857c-7.932,4.215-14.026,8.502-14.026,8.502
			c-3.646,2.512-4.569,7.508-2.063,11.162c2.506,3.652,7.493,4.578,11.139,2.066c0,0,5.455-3.816,12.494-7.559
			c7.041-3.744,16.029-6.967,19.802-6.969c3.749-0.002,8.034,2.539,13.79,6.494c5.757,3.955,12.96,9.332,22.866,9.332
			c9.905,0,17.111-5.377,22.866-9.332c5.757-3.953,10.041-6.494,13.791-6.494c3.749,0,8.034,2.539,13.791,6.494
			c5.757,3.955,12.96,9.332,22.866,9.332c9.905,0,17.11-5.377,22.866-9.332c5.757-3.953,10.158-6.494,13.909-6.494
			c3.749,0,8.034,2.539,13.791,6.494c5.757,3.955,12.961,9.332,22.866,9.332c9.905,0,17.109-5.377,22.866-9.332
			c5.757-3.953,10.041-6.494,13.79-6.494s8.034,2.539,13.791,6.494c5.757,3.955,12.96,9.332,22.866,9.332
			c9.905,0,17.11-5.377,22.866-9.332c5.757-3.953,10.041-6.494,13.791-6.494c3.773-0.004,12.873,3.246,19.92,6.969
			c7.046,3.725,12.376,7.439,12.376,7.439c3.673,2.471,8.649,1.49,11.115-2.189c2.428-3.623,1.522-8.525-2.039-11.037
			c0,0-6.091-4.191-14.027-8.385c-7.935-4.189-17.425-8.863-27.345-8.857c-9.906,0-17.111,5.377-22.866,9.33
			c-5.757,3.955-10.041,6.496-13.791,6.496c-3.749,0-8.034-2.539-13.791-6.496c-5.757-3.955-12.961-9.33-22.866-9.33
			s-17.11,5.377-22.866,9.33c-5.757,3.955-10.04,6.496-13.79,6.496c-3.749,0-8.152-2.539-13.909-6.496
			c-5.757-3.955-12.843-9.33-22.749-9.33c-9.906,0-17.11,5.377-22.866,9.33c-5.757,3.955-10.159,6.496-13.908,6.496
			s-8.034-2.539-13.791-6.496c-5.757-3.955-12.96-9.33-22.866-9.33c-9.905,0-17.11,5.377-22.866,9.33
			c-5.757,3.955-10.041,6.496-13.791,6.496c-3.749,0-8.034-2.539-13.79-6.496C126.272,1473.729,119.069,1468.35,109.162,1468.354
			L109.162,1468.354z"/>
	</g>
	<path style="fill:#FB9761;" d="M255.911,1036.323c-6.79,0-13.527,3.133-18.626,10.157
		c-27.857,38.384-69.187,109.317-69.187,188.999c0,67.256,29.316,126.527,55.281,166.969l32.532-6.5h0.122v-359.657h-0.122V1036.323
		z"/>
	<g>
		<path style="fill:#FFFFFF;" d="M207.474,1164.354c4.403-0.244,8.169,3.137,8.412,7.547c0.048,0.881-0.048,1.762-0.287,2.609
			c-8.346,32.094-5.485,70.529,0.242,108.531c0.82,4.342-2.027,8.527-6.36,9.35c-4.333,0.822-8.511-2.031-9.331-6.373
			c-0.038-0.199-0.068-0.398-0.09-0.6c-5.811-38.764-9.209-79.016,0.122-114.906c0.809-3.447,3.784-5.951,7.312-6.156
			L207.474,1164.354z"/>
		<path style="fill:#FFFFFF;" d="M215.38,1308.387c0.181-0.006,0.363-0.006,0.544,0c4.404,0.008,7.969,3.588,7.969,8
			c0,4.412-3.565,7.992-7.969,8c-4.403-0.008-7.969-3.588-7.968-8c-0.011-4.201,3.224-7.695,7.406-8H215.38z"/>
	</g>
</g>
</svg>